<svg width="32" height="32" viewBox="0 0 32 32" fill="none" xmlns="http://www.w3.org/2000/svg">
<path d="M9.34277 16C9.34277 15.7348 9.44813 15.4804 9.63567 15.2929C9.8232 15.1053 10.0776 15 10.3428 15H15.0001V10.3427C15.0001 10.0774 15.1055 9.82308 15.293 9.63554C15.4805 9.44801 15.7349 9.34265 16.0001 9.34265C16.2653 9.34265 16.5197 9.44801 16.7072 9.63554C16.8947 9.82308 17.0001 10.0774 17.0001 10.3427V15H21.6574C21.9227 15 22.177 15.1053 22.3645 15.2929C22.5521 15.4804 22.6574 15.7348 22.6574 16C22.6574 16.2652 22.5521 16.5196 22.3645 16.7071C22.177 16.8946 21.9227 17 21.6574 17H17.0001V21.6573C17.0001 21.9225 16.8947 22.1769 16.7072 22.3644C16.5197 22.552 16.2653 22.6573 16.0001 22.6573C15.7349 22.6573 15.4805 22.552 15.293 22.3644C15.1055 22.1769 15.0001 21.9225 15.0001 21.6573V17H10.3428C10.0776 17 9.8232 16.8946 9.63567 16.7071C9.44813 16.5196 9.34277 16.2652 9.34277 16Z" fill="#F3F3F3"/>
<path fill-rule="evenodd" clip-rule="evenodd" d="M9.75605 5.02536C13.906 4.56528 18.0941 4.56528 22.2441 5.02536C24.6801 5.29736 26.6467 7.21602 26.932 9.66536C27.4254 13.8747 27.4254 18.1267 26.932 22.336C26.6454 24.7854 24.6787 26.7027 22.2441 26.976C18.0941 27.4361 13.906 27.4361 9.75605 26.976C7.32005 26.7027 5.35338 24.7854 5.06805 22.336C4.57693 18.1267 4.57693 13.8746 5.06805 9.66536C5.35338 7.21602 7.32138 5.29736 9.75605 5.02536ZM22.0227 7.01202C18.0199 6.56832 13.9802 6.56832 9.97738 7.01202C9.23637 7.09423 8.54472 7.42385 8.01415 7.94764C7.48359 8.47143 7.14511 9.1588 7.05338 9.89869C6.57916 13.9533 6.57916 18.0494 7.05338 22.104C7.14538 22.8437 7.48399 23.5307 8.01453 24.0543C8.54507 24.5778 9.23657 24.9072 9.97738 24.9894C13.9467 25.432 18.0534 25.432 22.0227 24.9894C22.7633 24.9069 23.4545 24.5774 23.9848 24.0539C24.515 23.5304 24.8534 22.8435 24.9454 22.104C25.4196 18.0494 25.4196 13.9533 24.9454 9.89869C24.8532 9.15948 24.5146 8.47289 23.9844 7.94965C23.4541 7.42642 22.7631 7.09706 22.0227 7.01469" fill="#F3F3F3"/>
</svg>
