<svg width="26" height="26" viewBox="0 0 26 26" fill="none" xmlns="http://www.w3.org/2000/svg">
<g clip-path="url(#clip0_22_5685)">
<path d="M7.66841 25.5133C7.1558 25.1722 6.70147 24.7508 6.32291 24.2653C5.90649 23.7641 5.52067 23.2383 5.16753 22.6906C4.33885 21.4766 3.68898 20.1498 3.23785 18.7508C2.69591 17.1258 2.43347 15.5683 2.43347 14.0448C2.43347 12.3435 2.80153 10.8582 3.52141 9.61021C4.05504 8.63475 4.83962 7.8196 5.79397 7.24908C6.71885 6.67462 7.78154 6.36025 8.8701 6.33908C9.25116 6.33908 9.66147 6.39433 10.097 6.49996C10.4098 6.58852 10.7908 6.72827 11.2564 6.90215C11.8487 7.13046 12.1745 7.27021 12.285 7.30433C12.632 7.43108 12.9237 7.48633 13.1528 7.48633C13.3267 7.48633 13.572 7.43108 13.8507 7.34658C14.0075 7.29133 14.3033 7.19383 14.7266 7.01265C15.1458 6.8599 15.4757 6.72908 15.7382 6.63158C16.1403 6.51296 16.5295 6.40327 16.8765 6.34802C17.2878 6.28318 17.7052 6.266 18.1204 6.29683C18.84 6.34386 19.5487 6.49635 20.224 6.7494C21.3282 7.19383 22.2211 7.88771 22.8857 8.87408C22.6048 9.04722 22.3412 9.24693 22.0984 9.47046C21.57 9.93893 21.1198 10.4889 20.7651 11.0995C20.3014 11.934 20.061 12.8741 20.0672 13.8287C20.0842 15.0011 20.3848 16.0338 20.9772 16.9268C21.4126 17.5886 21.9786 18.1545 22.6403 18.59C22.9792 18.8183 23.2708 18.9751 23.5503 19.0807C23.4195 19.487 23.2798 19.8802 23.1148 20.2702C22.7408 21.1448 22.2874 21.9833 21.7604 22.7751C21.2908 23.4568 20.9227 23.9646 20.6432 24.3026C20.2077 24.8186 19.7885 25.2126 19.3652 25.4873C18.8996 25.796 18.3495 25.961 17.7905 25.961C17.412 25.9755 17.0335 25.9297 16.6693 25.8253C16.3565 25.7196 16.0469 25.6051 15.7422 25.4743C15.4255 25.3288 15.0988 25.2058 14.7648 25.1062C13.939 24.8941 13.0733 24.8927 12.2468 25.1021C11.908 25.1996 11.5822 25.3134 11.2605 25.4531C10.8079 25.6433 10.5073 25.7708 10.3334 25.8253C9.98647 25.9268 9.62653 25.9902 9.26253 26.0113C8.69947 26.0113 8.1746 25.8505 7.6546 25.5246L7.66841 25.5133ZM15.0947 5.51358C14.3585 5.88165 13.6557 6.03846 12.9578 5.98727C12.8481 5.28446 12.9578 4.5654 13.2495 3.77808C13.4978 3.11107 13.8647 2.49448 14.3325 1.95808C14.8265 1.39341 15.426 0.930576 16.0973 0.59552C16.8123 0.227458 17.494 0.0283955 18.1456 -0.000854492C18.2301 0.735271 18.1456 1.45921 17.875 2.24165C17.6246 2.93331 17.2584 3.57734 16.792 4.14615C16.3159 4.71159 15.7316 5.17622 15.0735 5.51277L15.0947 5.51358Z" fill="black"/>
</g>
<defs>
<clipPath id="clip0_22_5685">
<rect width="26" height="26" fill="white"/>
</clipPath>
</defs>
</svg>
