<svg width="25" height="20" viewBox="0 0 25 20" fill="none" xmlns="http://www.w3.org/2000/svg">
<path fill-rule="evenodd" clip-rule="evenodd" d="M14.6456 0C15.2662 0 15.8641 0.219556 16.3202 0.614949L17.9105 1.99375C18.3096 2.33972 18.8172 2.55106 19.3537 2.59849L19.5852 2.6087H20.3172C22.7034 2.6087 24.6378 4.42551 24.6378 6.66667V15.942C24.6378 18.1832 22.7034 20 20.3172 20H4.88652C2.50032 20 0.565918 18.1832 0.565918 15.942V6.66667C0.565918 4.42551 2.50032 2.6087 4.88652 2.6087H5.61859C6.23925 2.6087 6.83714 2.38914 7.2932 1.99375L8.88357 0.614949C9.33964 0.219556 9.93753 0 10.5582 0H14.6456ZM7.58726 7.07325C7.42198 6.96177 7.20133 6.98079 7.05943 7.10819L7.00382 7.16936L4.67196 10.3257C4.6221 10.3932 4.59533 10.4738 4.59533 10.5564C4.59533 10.7497 4.73883 10.911 4.9296 10.9483L5.01397 10.9564H6.4039L6.40815 11.1776C6.52989 14.3336 9.24603 16.8564 12.5789 16.8564C13.0991 16.8564 13.5208 16.4535 13.5208 15.9564C13.5208 15.4594 13.0991 15.0564 12.5789 15.0564C10.2808 15.0564 8.40463 13.3303 8.29304 11.161L8.28778 10.9564H9.67771C9.76416 10.9564 9.8485 10.9308 9.91913 10.8832C10.0844 10.7717 10.1396 10.5667 10.0614 10.3963L10.0197 10.3257L7.68786 7.16936C7.66031 7.13207 7.62629 7.09957 7.58726 7.07325ZM12.6019 5.09998C12.0816 5.09998 11.6599 5.50292 11.6599 5.99998C11.6599 6.49703 12.0816 6.89998 12.6019 6.89998C14.8999 6.89998 16.7761 8.62604 16.8877 10.7953L16.8929 11H15.503C15.4166 11 15.3322 11.0256 15.2616 11.0732C15.0963 11.1847 15.0412 11.3897 15.1193 11.5601L15.161 11.6306L17.4929 14.787C17.5204 14.8243 17.5544 14.8568 17.5935 14.8831C17.7587 14.9946 17.9794 14.9756 18.1213 14.8482L18.1769 14.787L20.5088 11.6306C20.5586 11.5632 20.5854 11.4826 20.5854 11.4C20.5854 11.2067 20.4419 11.0454 20.2511 11.0081L20.1667 11H18.7768L18.7726 10.7788C18.6508 7.62279 15.9347 5.09998 12.6019 5.09998Z" fill="url(#paint0_linear_22_9102)"/>
<defs>
<linearGradient id="paint0_linear_22_9102" x1="2.9545" y1="9.15592e-07" x2="24.332" y2="16.1296" gradientUnits="userSpaceOnUse">
<stop offset="0.173077" stop-color="#FF9900"/>
<stop offset="1" stop-color="#FFEF12"/>
</linearGradient>
</defs>
</svg>
