<svg width="16" height="16" viewBox="0 0 16 16" fill="none" xmlns="http://www.w3.org/2000/svg">
<mask id="path-1-inside-1_22_6076" fill="white">
<path d="M8 0C12.4183 0 16 3.58172 16 8C16 9.49601 15.5877 10.8951 14.873 12.0928L15.8896 15.8838L12.1006 14.8682C10.9012 15.5858 9.4993 16 8 16C3.58172 16 0 12.4183 0 8C0 3.58172 3.58172 0 8 0Z"/>
</mask>
<path d="M14.873 12.0928L13.585 11.3241C13.3772 11.6723 13.3192 12.0897 13.4242 12.4813L14.873 12.0928ZM15.8896 15.8838L15.5013 17.3326C16.019 17.4714 16.5714 17.3234 16.9504 16.9444C17.3293 16.5654 17.4773 16.013 17.3385 15.4953L15.8896 15.8838ZM12.1006 14.8682L12.4889 13.4193C12.0968 13.3142 11.6788 13.3725 11.3304 13.581L12.1006 14.8682ZM8 0V1.5C11.5899 1.5 14.5 4.41015 14.5 8H16H17.5C17.5 2.75329 13.2467 -1.5 8 -1.5V0ZM16 8H14.5C14.5 9.21663 14.1655 10.3513 13.585 11.3241L14.873 12.0928L16.1611 12.8615C17.01 11.439 17.5 9.77539 17.5 8H16ZM14.873 12.0928L13.4242 12.4813L14.4408 16.2723L15.8896 15.8838L17.3385 15.4953L16.3219 11.7043L14.873 12.0928ZM15.8896 15.8838L16.278 14.4349L12.4889 13.4193L12.1006 14.8682L11.7122 16.317L15.5013 17.3326L15.8896 15.8838ZM12.1006 14.8682L11.3304 13.581C10.3561 14.164 9.21918 14.5 8 14.5V16L8 17.5C9.77943 17.5 11.4464 17.0076 12.8707 16.1554L12.1006 14.8682ZM8 16V14.5C4.41015 14.5 1.5 11.5899 1.5 8H0H-1.5C-1.5 13.2467 2.75329 17.5 8 17.5L8 16ZM0 8H1.5C1.5 4.41015 4.41015 1.5 8 1.5V0V-1.5C2.75329 -1.5 -1.5 2.75329 -1.5 8H0Z" fill="#111827" mask="url(#path-1-inside-1_22_6076)"/>
</svg>
