<svg width="21" height="21" viewBox="0 0 21 21" fill="none" xmlns="http://www.w3.org/2000/svg">
<path d="M5.25 5.425C5.25 4.445 5.25 3.955 5.44075 3.5805C5.60853 3.25123 5.87623 2.98353 6.2055 2.81575C6.58 2.625 7.07 2.625 8.05 2.625H12.95C13.93 2.625 14.42 2.625 14.7945 2.81575C15.1238 2.98353 15.3915 3.25123 15.5592 3.5805C15.75 3.955 15.75 4.445 15.75 5.425V17.0669C15.75 17.4921 15.75 17.7048 15.6616 17.8211C15.6234 17.8717 15.5747 17.9134 15.5188 17.9434C15.4629 17.9733 15.4012 17.9907 15.3379 17.9944C15.1917 18.0031 15.015 17.885 14.6615 17.6496L10.5 14.875L6.3385 17.6488C5.985 17.885 5.80825 18.0031 5.66125 17.9944C5.59811 17.9906 5.53654 17.9731 5.4808 17.9432C5.42506 17.9133 5.37647 17.8716 5.33837 17.8211C5.25 17.7048 5.25 17.4921 5.25 17.0669V5.425Z" stroke="#111827" stroke-width="1.5" stroke-linecap="round" stroke-linejoin="round"/>
</svg>
