<svg width="24" height="22" viewBox="0 0 24 22" fill="none" xmlns="http://www.w3.org/2000/svg">
<path fill-rule="evenodd" clip-rule="evenodd" d="M19.2476 0C21.5597 0 23.434 1.79086 23.434 4V18C23.434 20.2091 21.5597 22 19.2476 22H4.59511C2.28301 22 0.408691 20.2091 0.408691 18V4C0.408691 1.79086 2.28301 0 4.59511 0H19.2476ZM19.2477 2H4.59521C3.43916 2 2.502 2.89543 2.502 4V14.4655C2.502 14.5759 2.59572 14.6655 2.71132 14.6655C2.744 14.6655 2.77622 14.6582 2.80541 14.6441L9.09938 11.618C10.8747 10.7641 12.9684 10.7636 14.7441 11.6168L21.0375 14.6403C21.1408 14.6899 21.2666 14.6501 21.3186 14.5514C21.3332 14.5236 21.3409 14.4928 21.3409 14.4616V4C21.3409 2.89543 20.4037 2 19.2477 2ZM7.21166 4C8.65672 4 9.82817 5.11929 9.82817 6.5C9.82817 7.88071 8.65672 9 7.21166 9C5.7666 9 4.59515 7.88071 4.59515 6.5C4.59515 5.11929 5.7666 4 7.21166 4Z" fill="url(#paint0_linear_22_9107)"/>
<defs>
<linearGradient id="paint0_linear_22_9107" x1="2.69342" y1="1.00715e-06" x2="25.1259" y2="14.7179" gradientUnits="userSpaceOnUse">
<stop offset="0.173077" stop-color="#FF9900"/>
<stop offset="1" stop-color="#FFEF12"/>
</linearGradient>
</defs>
</svg>
