<svg width="24" height="24" viewBox="0 0 24 24" fill="none" xmlns="http://www.w3.org/2000/svg">
<path d="M20.243 4.75694C21.3264 5.84013 21.9543 7.29669 21.9982 8.82803C22.0421 10.3594 21.4986 11.8495 20.479 12.9929L11.999 21.4849L3.52102 12.9929C2.50028 11.8489 1.95623 10.3575 2.00056 8.82492C2.04489 7.29235 2.67425 5.83489 3.75942 4.75177C4.84459 3.66865 6.30323 3.04205 7.83589 3.00061C9.36854 2.95917 10.8589 3.50604 12.001 4.52894C13.1438 3.5066 14.6346 2.96057 16.1674 3.00297C17.7001 3.04537 19.1585 3.67298 20.243 4.75694ZM5.17202 6.17194C4.45628 6.88764 4.03848 7.84808 4.00285 8.85964C3.96722 9.8712 4.31641 10.8587 4.98002 11.6229L12 18.6539L19.02 11.6239C19.6837 10.8594 20.0327 9.87157 19.9968 8.85978C19.9608 7.84798 19.5425 6.88746 18.8262 6.17194C18.1099 5.45642 17.149 5.03914 16.1371 5.00425C15.1253 4.96936 14.1379 5.31946 13.374 5.98394L9.17202 10.1869L7.75702 8.77294L10.582 5.94594L10.5 5.87694C9.7313 5.26177 8.7627 4.95173 7.77964 5.00616C6.79659 5.06059 5.86813 5.47567 5.17202 6.17194Z" fill="black"/>
</svg>
