<svg width="29" height="28" viewBox="0 0 29 28" fill="none" xmlns="http://www.w3.org/2000/svg">
<path d="M5.35913 22.1667V11.6667C5.35913 11.2973 5.44196 10.9473 5.60763 10.6167C5.7733 10.2862 6.00158 10.0139 6.29246 9.80004L13.2925 4.55004C13.7008 4.23893 14.1675 4.08337 14.6925 4.08337C15.2175 4.08337 15.6841 4.23893 16.0925 4.55004L23.0925 9.80004C23.3841 10.0139 23.6128 10.2862 23.7785 10.6167C23.9441 10.9473 24.0266 11.2973 24.0258 11.6667V22.1667C24.0258 22.8084 23.7971 23.3579 23.3398 23.8152C22.8825 24.2725 22.3334 24.5008 21.6925 24.5H18.1925C17.8619 24.5 17.585 24.388 17.3618 24.164C17.1386 23.94 17.0266 23.6632 17.0258 23.3334V17.5C17.0258 17.1695 16.9138 16.8926 16.6898 16.6694C16.4658 16.4462 16.1889 16.3342 15.8591 16.3334H13.5258C13.1952 16.3334 12.9184 16.4454 12.6951 16.6694C12.4719 16.8934 12.3599 17.1703 12.3591 17.5V23.3334C12.3591 23.6639 12.2471 23.9412 12.0231 24.1652C11.7991 24.3892 11.5222 24.5008 11.1925 24.5H7.69246C7.0508 24.5 6.50169 24.2718 6.04513 23.8152C5.58858 23.3587 5.35991 22.8092 5.35913 22.1667Z" fill="url(#paint0_linear_22_6105)"/>
<defs>
<linearGradient id="paint0_linear_22_6105" x1="7.21136" y1="4.08337" x2="26.7932" y2="15.3067" gradientUnits="userSpaceOnUse">
<stop offset="0.173077" stop-color="#FF9900"/>
<stop offset="1" stop-color="#FFEF12"/>
</linearGradient>
</defs>
</svg>
