<svg width="25" height="24" viewBox="0 0 25 24" fill="none" xmlns="http://www.w3.org/2000/svg">
<path d="M4.04199 7.87295H21.65M16.653 7.87295V2.87695M9.03899 7.87295V2.87695M10.986 11.928V16.85C10.986 16.951 11.018 17.05 11.077 17.136C11.137 17.221 11.222 17.29 11.323 17.335C11.4248 17.3795 11.5362 17.3976 11.6468 17.3877C11.7575 17.3777 11.8638 17.34 11.956 17.278L15.754 14.628C15.8278 14.5767 15.8881 14.5084 15.93 14.429C15.9694 14.3522 15.9883 14.2665 15.9848 14.1803C15.9813 14.0941 15.9555 14.0103 15.91 13.937C15.8608 13.8613 15.7952 13.7977 15.718 13.751L11.92 11.479C11.8271 11.425 11.7224 11.3945 11.6151 11.3901C11.5077 11.3858 11.4009 11.4077 11.304 11.454C11.2109 11.4989 11.131 11.5671 11.072 11.652C11.0168 11.7335 10.9869 11.8295 10.986 11.928Z" stroke="#F3F3F3" stroke-width="1.5" stroke-linecap="round" stroke-linejoin="round"/>
<path d="M16.0959 2.75H9.59595C6.28224 2.75 3.59595 5.43629 3.59595 8.75V15.25C3.59595 18.5637 6.28224 21.25 9.59595 21.25H16.0959C19.4097 21.25 22.0959 18.5637 22.0959 15.25V8.75C22.0959 5.43629 19.4097 2.75 16.0959 2.75Z" stroke="#F3F3F3" stroke-width="1.5"/>
</svg>
