<svg width="25" height="24" viewBox="0 0 25 24" fill="none" xmlns="http://www.w3.org/2000/svg">
<path d="M22.2485 20.29L18.5385 16.61C19.9786 14.8144 20.676 12.5353 20.4873 10.2413C20.2986 7.94733 19.2381 5.81281 17.524 4.27667C15.8098 2.74053 13.5723 1.91954 11.2714 1.9825C8.97052 2.04546 6.7812 2.98759 5.15362 4.61517C3.52604 6.24275 2.58391 8.43207 2.52095 10.7329C2.45799 13.0338 3.27898 15.2714 4.81512 16.9855C6.35126 18.6997 8.48578 19.7601 10.7798 19.9488C13.0738 20.1375 15.3529 19.4401 17.1485 18L20.8285 21.68C20.9214 21.7738 21.032 21.8482 21.1539 21.8989C21.2758 21.9497 21.4065 21.9758 21.5385 21.9758C21.6705 21.9758 21.8012 21.9497 21.9231 21.8989C22.0449 21.8482 22.1555 21.7738 22.2485 21.68C22.4287 21.4936 22.5295 21.2444 22.5295 20.985C22.5295 20.7257 22.4287 20.4765 22.2485 20.29ZM11.5385 18C10.154 18 8.80063 17.5895 7.64949 16.8203C6.49834 16.0511 5.60114 14.9579 5.07132 13.6788C4.54151 12.3997 4.40288 10.9923 4.67298 9.63439C4.94308 8.27653 5.60976 7.02925 6.58873 6.05028C7.5677 5.07131 8.81498 4.40463 10.1728 4.13453C11.5307 3.86443 12.9382 4.00306 14.2173 4.53287C15.4963 5.06268 16.5896 5.95989 17.3588 7.11103C18.1279 8.26218 18.5385 9.61556 18.5385 11C18.5385 12.8565 17.801 14.637 16.4882 15.9498C15.1755 17.2625 13.395 18 11.5385 18Z" fill="#F3F3F3"/>
</svg>
