<svg width="21" height="21" viewBox="0 0 21 21" fill="none" xmlns="http://www.w3.org/2000/svg">
<g clip-path="url(#clip0_22_7515)">
<path d="M14.0033 16.5034H19.0033M16.5033 14.0034V19.0034M5.66992 18.17V16.5034C5.66992 15.6193 6.02111 14.7715 6.64623 14.1464C7.27135 13.5212 8.1192 13.17 9.00326 13.17H12.3366M7.33659 6.50338C7.33659 7.38743 7.68778 8.23528 8.3129 8.8604C8.93802 9.48552 9.78587 9.83671 10.6699 9.83671C11.554 9.83671 12.4018 9.48552 13.0269 8.8604C13.6521 8.23528 14.0033 7.38743 14.0033 6.50338C14.0033 5.61932 13.6521 4.77148 13.0269 4.14635C12.4018 3.52123 11.554 3.17004 10.6699 3.17004C9.78587 3.17004 8.93802 3.52123 8.3129 4.14635C7.68778 4.77148 7.33659 5.61932 7.33659 6.50338Z" stroke="#6B7280" stroke-width="1.5" stroke-linecap="round" stroke-linejoin="round"/>
</g>
<defs>
<clipPath id="clip0_22_7515">
<rect width="20" height="20" fill="white" transform="translate(0.669922 0.670044)"/>
</clipPath>
</defs>
</svg>
