<svg width="49" height="48" viewBox="0 0 49 48" fill="none" xmlns="http://www.w3.org/2000/svg">
<g clip-path="url(#clip0_22_7480)">
<path d="M14.33 36C11.8345 36 9.4413 35.0518 7.67676 33.364C5.91221 31.6762 4.9209 29.387 4.9209 27C4.9209 24.6131 5.91221 22.3239 7.67676 20.6361C9.4413 18.9482 11.8345 18 14.33 18C14.9194 15.3744 16.6435 13.067 19.1232 11.5855C20.351 10.8519 21.7273 10.3431 23.1735 10.0882C24.6198 9.83338 26.1077 9.83738 27.5522 10.1C28.9968 10.3627 30.3697 10.8788 31.5926 11.619C32.8155 12.3592 33.8644 13.3089 34.6795 14.4139C35.4946 15.5189 36.0599 16.7576 36.3431 18.0592C36.6263 19.3609 36.6218 20.6999 36.33 22H38.33C40.1865 22 41.967 22.7375 43.2797 24.0503C44.5925 25.363 45.33 27.1435 45.33 29C45.33 30.8565 44.5925 32.637 43.2797 33.9498C41.967 35.2625 40.1865 36 38.33 36H36.33" stroke="#6B7280" stroke-width="1.5" stroke-linecap="round" stroke-linejoin="round"/>
<path d="M18.3301 30L24.3301 24M24.3301 24L30.3301 30M24.3301 24V42" stroke="#6B7280" stroke-width="1.5" stroke-linecap="round" stroke-linejoin="round"/>
</g>
<defs>
<clipPath id="clip0_22_7480">
<rect width="48" height="48" fill="white" transform="translate(0.330078)"/>
</clipPath>
</defs>
</svg>
